<mxfile host="app.diagrams.net" modified="2024-05-16T22:01:21.543Z" agent="Mozilla/5.0 (Macintosh; Intel Mac OS X 10_15_7) AppleWebKit/605.1.15 (KHTML, like Gecko) Version/17.4.1 Safari/605.1.15" etag="DN9tg8smpVUSg49A30pH" version="24.4.3" type="github">
  <diagram name="Page-1" id="66U-YrVXCCfPf5cJQVHg">
    <mxGraphModel dx="952" dy="699" grid="1" gridSize="10" guides="1" tooltips="1" connect="1" arrows="1" fold="1" page="1" pageScale="1" pageWidth="850" pageHeight="1100" background="none" math="0" shadow="0">
      <root>
        <mxCell id="0" />
        <mxCell id="1" parent="0" />
        <mxCell id="Y1XdUBZsQn69NxMOFHps-1" value="&lt;span style=&quot;text-align: start; caret-color: rgb(0, 7, 22); color: rgb(0, 7, 22); font-family: &amp;quot;Amazon Ember&amp;quot;, &amp;quot;Helvetica Neue&amp;quot;, Roboto, Arial, sans-serif; font-size: 14px; background-color: rgb(255, 255, 255);&quot;&gt;99.79.182.52&lt;/span&gt;&lt;br&gt;&lt;div&gt;&lt;span style=&quot;text-align: start; caret-color: rgb(0, 7, 22); color: rgb(0, 7, 22); font-family: &amp;quot;Amazon Ember&amp;quot;, &amp;quot;Helvetica Neue&amp;quot;, Roboto, Arial, sans-serif; font-size: 14px; background-color: rgb(255, 255, 255);&quot;&gt;LightSail Instance&lt;/span&gt;&lt;/div&gt;&lt;div&gt;&lt;span style=&quot;text-align: start; caret-color: rgb(22, 25, 31); color: rgb(22, 25, 31); font-family: &amp;quot;Amazon Ember&amp;quot;, &amp;quot;Helvetica Neue&amp;quot;, Roboto, Arial, sans-serif; font-weight: 700; letter-spacing: -0.48px; background-color: rgb(255, 255, 255);&quot;&gt;&lt;font style=&quot;font-size: 20px;&quot;&gt;wordpress-culture-creates-corpo&lt;/font&gt;&lt;/span&gt;&lt;span style=&quot;text-align: start; caret-color: rgb(0, 7, 22); color: rgb(0, 7, 22); font-family: &amp;quot;Amazon Ember&amp;quot;, &amp;quot;Helvetica Neue&amp;quot;, Roboto, Arial, sans-serif; font-size: 14px; background-color: rgb(255, 255, 255);&quot;&gt;&lt;br&gt;&lt;/span&gt;&lt;/div&gt;" style="whiteSpace=wrap;html=1;aspect=fixed;verticalAlign=top;" parent="1" vertex="1">
          <mxGeometry x="530" y="435" width="215" height="215" as="geometry" />
        </mxCell>
        <mxCell id="Y1XdUBZsQn69NxMOFHps-2" value="" style="endArrow=classic;html=1;rounded=0;" parent="1" source="Y1XdUBZsQn69NxMOFHps-17" target="Y1XdUBZsQn69NxMOFHps-1" edge="1">
          <mxGeometry width="50" height="50" relative="1" as="geometry">
            <mxPoint x="330" y="260" as="sourcePoint" />
            <mxPoint x="440" y="250" as="targetPoint" />
          </mxGeometry>
        </mxCell>
        <mxCell id="Y1XdUBZsQn69NxMOFHps-16" value="A Record" style="edgeLabel;html=1;align=center;verticalAlign=middle;resizable=0;points=[];" parent="Y1XdUBZsQn69NxMOFHps-2" vertex="1" connectable="0">
          <mxGeometry x="-0.0717" y="2" relative="1" as="geometry">
            <mxPoint x="-1" as="offset" />
          </mxGeometry>
        </mxCell>
        <mxCell id="Y1XdUBZsQn69NxMOFHps-3" value="&lt;div&gt;&lt;br&gt;&lt;/div&gt;&lt;div&gt;&lt;br&gt;&lt;/div&gt;CloudFront&lt;div&gt;&lt;span style=&quot;caret-color: rgb(22, 25, 31); color: rgb(22, 25, 31); font-family: &amp;quot;Amazon Ember&amp;quot;, &amp;quot;Helvetica Neue&amp;quot;, Roboto, Arial, sans-serif; font-size: 14px; background-color: rgb(255, 255, 255);&quot;&gt;d2mlnk6m49v4qy.cloudfront.net&lt;/span&gt;&lt;br&gt;&lt;/div&gt;" style="ellipse;shape=cloud;whiteSpace=wrap;html=1;align=center;verticalAlign=top;" parent="1" vertex="1">
          <mxGeometry x="100" y="260" width="460" height="175" as="geometry" />
        </mxCell>
        <mxCell id="Y1XdUBZsQn69NxMOFHps-5" value="www.culturecreates.com" style="ellipse;whiteSpace=wrap;html=1;" parent="1" vertex="1">
          <mxGeometry x="470" y="80" width="210" height="60" as="geometry" />
        </mxCell>
        <mxCell id="Y1XdUBZsQn69NxMOFHps-6" value="culturecreates.com" style="ellipse;whiteSpace=wrap;html=1;" parent="1" vertex="1">
          <mxGeometry x="230" y="170" width="210" height="60" as="geometry" />
        </mxCell>
        <mxCell id="Y1XdUBZsQn69NxMOFHps-11" value="" style="endArrow=classic;html=1;rounded=0;" parent="1" source="Y1XdUBZsQn69NxMOFHps-5" target="Y1XdUBZsQn69NxMOFHps-6" edge="1">
          <mxGeometry width="50" height="50" relative="1" as="geometry">
            <mxPoint x="280" y="140" as="sourcePoint" />
            <mxPoint x="330" y="90" as="targetPoint" />
          </mxGeometry>
        </mxCell>
        <mxCell id="Y1XdUBZsQn69NxMOFHps-14" value="CNAME" style="edgeLabel;html=1;align=center;verticalAlign=middle;resizable=0;points=[];" parent="Y1XdUBZsQn69NxMOFHps-11" vertex="1" connectable="0">
          <mxGeometry x="-0.0486" relative="1" as="geometry">
            <mxPoint as="offset" />
          </mxGeometry>
        </mxCell>
        <mxCell id="Y1XdUBZsQn69NxMOFHps-12" value="" style="endArrow=classic;html=1;rounded=0;" parent="1" source="Y1XdUBZsQn69NxMOFHps-6" target="Y1XdUBZsQn69NxMOFHps-3" edge="1">
          <mxGeometry width="50" height="50" relative="1" as="geometry">
            <mxPoint x="500" y="370" as="sourcePoint" />
            <mxPoint x="550" y="320" as="targetPoint" />
          </mxGeometry>
        </mxCell>
        <mxCell id="Y1XdUBZsQn69NxMOFHps-15" value="A Record (ALIAS)" style="edgeLabel;html=1;align=center;verticalAlign=middle;resizable=0;points=[];" parent="Y1XdUBZsQn69NxMOFHps-12" vertex="1" connectable="0">
          <mxGeometry x="-0.0736" y="1" relative="1" as="geometry">
            <mxPoint as="offset" />
          </mxGeometry>
        </mxCell>
        <mxCell id="Y1XdUBZsQn69NxMOFHps-17" value="origin.culturecreates.com" style="ellipse;whiteSpace=wrap;html=1;" parent="1" vertex="1">
          <mxGeometry x="230" y="500" width="210" height="60" as="geometry" />
        </mxCell>
        <mxCell id="Y1XdUBZsQn69NxMOFHps-18" value="" style="endArrow=classic;html=1;rounded=0;" parent="1" source="Y1XdUBZsQn69NxMOFHps-3" target="Y1XdUBZsQn69NxMOFHps-17" edge="1">
          <mxGeometry width="50" height="50" relative="1" as="geometry">
            <mxPoint x="220" y="440" as="sourcePoint" />
            <mxPoint x="220" y="495" as="targetPoint" />
          </mxGeometry>
        </mxCell>
        <mxCell id="Y1XdUBZsQn69NxMOFHps-19" value="Origin" style="edgeLabel;html=1;align=center;verticalAlign=middle;resizable=0;points=[];" parent="Y1XdUBZsQn69NxMOFHps-18" vertex="1" connectable="0">
          <mxGeometry x="-0.0736" y="1" relative="1" as="geometry">
            <mxPoint as="offset" />
          </mxGeometry>
        </mxCell>
        <mxCell id="Y1XdUBZsQn69NxMOFHps-20" value="origin.culturecreates.com&lt;div&gt;www.culturecreates.com&lt;/div&gt;&lt;div&gt;culturecreates.com&lt;/div&gt;" style="aspect=fixed;pointerEvents=1;shadow=0;dashed=0;html=1;strokeColor=none;labelPosition=center;verticalLabelPosition=bottom;verticalAlign=top;align=center;fillColor=#00188D;shape=mxgraph.azure.certificate;" parent="1" vertex="1">
          <mxGeometry x="620" y="537.5" width="50" height="40" as="geometry" />
        </mxCell>
        <mxCell id="Y1XdUBZsQn69NxMOFHps-22" value="&lt;div&gt;www.culturecreates.com&lt;/div&gt;&lt;div&gt;culturecreates.com&lt;/div&gt;" style="sketch=0;aspect=fixed;pointerEvents=1;shadow=0;dashed=0;html=1;strokeColor=none;labelPosition=center;verticalLabelPosition=bottom;verticalAlign=top;align=center;fillColor=#00188D;shape=mxgraph.azure.certificate;labelBackgroundColor=none;labelBorderColor=none;" parent="1" vertex="1">
          <mxGeometry x="320" y="340" width="50" height="40" as="geometry" />
        </mxCell>
        <mxCell id="Y1XdUBZsQn69NxMOFHps-23" value="DNS Setup on AWS Route 53" style="text;html=1;align=center;verticalAlign=middle;resizable=0;points=[];autosize=1;strokeColor=none;fillColor=none;fontSize=22;" parent="1" vertex="1">
          <mxGeometry x="180" y="23" width="310" height="40" as="geometry" />
        </mxCell>
      </root>
    </mxGraphModel>
  </diagram>
</mxfile>
